<svg width="32" height="32" viewBox="0 0 32 32" fill="none" xmlns="http://www.w3.org/2000/svg">
<path d="M3.9875 25.5812L7.76875 21.8937C9.775 24.5687 12.2125 26.0188 15.6812 26.1063C17.5875 26.15 19.45 25.6687 21.0812 24.7062C21.4 25.0375 22.2375 25.925 22.3875 26.0812C20.375 27.375 18.0375 28.025 15.6313 27.9688C12.925 27.9 10.3437 26.925 8.275 25.1938C8.29375 25.1563 5.8875 27.5375 5.8625 27.5625C6.45625 29.425 5.04375 31.4625 2.96875 31.4625C1.29375 31.4562 0 30.1062 0 28.4312C0 26.2875 2.06875 24.8937 3.9875 25.5812ZM26.1688 9.80625C27.3625 11.7625 28.0187 14.0187 27.9625 16.3062C27.8937 19.1062 26.775 21.775 24.925 23.8687C24.9437 23.8875 26.4125 25.4437 26.4312 25.4625C27.0312 25.3812 27.6312 25.5875 28.05 26.0312C28.7562 26.7812 28.7313 27.9625 27.9813 28.6812C27.2313 29.3875 26.05 29.3625 25.3312 28.6125C24.9125 28.175 24.7438 27.5625 24.8563 26.9688C23.3 25.3062 22.0812 24.0187 22.0812 24.0187C24.75 21.8875 26.0375 19.0438 26.1063 16.2563C26.15 14.45 25.6563 12.6812 24.7875 11.1187L26.1688 9.80625ZM6.5 3.31875C6.91875 3.75625 7.0875 4.36875 6.975 4.9625L9.84375 7.96875C9.55 8.20625 9.0125 8.61875 8.41875 9.3C6.83125 11.0813 5.94375 13.35 5.875 15.7312C5.83125 17.5375 6.25625 19.3063 7.125 20.8813L5.75 22.225C4.54375 20.25 3.94375 17.9937 4.0125 15.6812C4.075 12.8937 5.15625 10.2063 6.98125 8.1125L5.4 6.4625C4.8 6.54375 4.2 6.3375 3.78125 5.89375C3.075 5.14375 3.1 3.9625 3.85 3.24375C4.59375 2.54375 5.7625 2.5625 6.5 3.31875ZM29.0562 0.5C30.6812 0.5 32 1.9 32 3.51875C32 5.1375 30.6812 6.5 29.0562 6.5C28.6625 6.50625 28.1812 6.43125 28.0625 6.3875L24.1313 10.1187C22.0875 7.39375 19.3375 6 16.2 5.91875C14.2938 5.875 12.4312 6.34375 10.8125 7.31875L9.49375 5.94375C11.5062 4.64375 13.8438 4 16.25 4.05625C18.9562 4.125 21.5375 5.1 23.6063 6.84375L26.175 4.43125C26.0812 4.1375 26.0375 3.83125 26.0375 3.525C26.0313 1.85625 27.4312 0.5 29.0562 0.5ZM16.0438 7.0875C16.3875 7.0875 16.725 7.1125 17.0688 7.15625C21.95 7.76875 25.4062 12.225 24.8062 17.1C24.1937 21.9813 19.7375 25.4375 14.8625 24.8375C9.98125 24.225 6.525 19.7687 7.125 14.8875C7.70625 10.3625 11.5063 7.1 16.0438 7.0875ZM12.3562 14.55C12.3937 15.9688 13.1188 17.1625 14.3813 17.8125L13.6938 21.0438H18.3L17.6125 17.8125C18.8687 17.1313 19.6188 16 19.6375 14.55C19.6125 12.5 18.025 10.9563 15.9937 10.9062C13.9875 10.9563 12.4125 12.4563 12.3562 14.55Z" fill="purple"/>
</svg>
