<svg width="325" height="317" viewBox="0 0 325 317" fill="none" xmlns="http://www.w3.org/2000/svg">
<path d="M196.177 92.3121H130.736C129.245 92.3139 127.815 92.9072 126.761 93.9617C125.706 95.0162 125.113 96.4458 125.111 97.9371V243.381L124.361 243.61L108.308 248.526C107.547 248.758 106.725 248.678 106.023 248.305C105.32 247.932 104.795 247.295 104.561 246.535L56.8088 90.5534C56.5764 89.7925 56.6556 88.9706 57.029 88.2681C57.4024 87.5656 58.0394 87.0401 58.8 86.8071L83.5389 79.2321L155.258 57.2796L179.996 49.7046C180.373 49.5888 180.768 49.5483 181.161 49.5855C181.553 49.6227 181.934 49.7369 182.282 49.9215C182.63 50.1061 182.938 50.3575 183.188 50.6613C183.439 50.9651 183.627 51.3154 183.743 51.6921L195.949 91.5621L196.177 92.3121Z" fill="#F2F2F2"/>
<path d="M210.458 91.5621L195.746 43.5096C195.502 42.709 195.101 41.9644 194.569 41.3185C194.036 40.6725 193.382 40.1379 192.642 39.745C191.903 39.3522 191.093 39.1089 190.26 39.0291C189.427 38.9492 188.586 39.0343 187.785 39.2796L153.004 49.9259L81.289 71.8821L46.5077 82.5321C44.892 83.0283 43.5391 84.1452 42.746 85.6378C41.9529 87.1304 41.7845 88.8767 42.2776 90.4934L92.5577 254.717C92.9583 256.022 93.7666 257.164 94.864 257.976C95.9614 258.788 97.2901 259.227 98.6553 259.228C99.2871 259.229 99.9153 259.134 100.519 258.947L124.361 251.65L125.111 251.417V250.633L124.361 250.862L100.298 258.231C98.8715 258.666 97.3311 258.517 96.0144 257.817C94.6976 257.118 93.7121 255.925 93.274 254.5L42.9978 90.2721C42.7807 89.566 42.705 88.8239 42.7751 88.0885C42.8452 87.3531 43.0597 86.6387 43.4063 85.9862C43.7529 85.3338 44.2247 84.7562 44.7949 84.2864C45.365 83.8166 46.0223 83.4638 46.7289 83.2484L81.5102 72.5984L153.225 50.6459L188.007 39.9959C188.542 39.8323 189.1 39.7489 189.66 39.7484C190.863 39.7511 192.033 40.1388 192.999 40.8548C193.966 41.5708 194.677 42.5774 195.03 43.7271L209.674 91.5621L209.906 92.3121H210.686L210.458 91.5621Z" fill="#3F3D56"/>
<path d="M88.0031 86.9297C87.2803 86.9292 86.5767 86.6971 85.9956 86.2674C85.4144 85.8377 84.9862 85.2331 84.7739 84.5422L79.9437 68.7653C79.8139 68.3415 79.7689 67.8963 79.8112 67.4551C79.8535 67.0139 79.9823 66.5854 80.1902 66.1939C80.3981 65.8025 80.6811 65.4559 81.0231 65.1739C81.365 64.8918 81.7591 64.6799 82.1829 64.5502L148.16 44.3513C149.016 44.0901 149.94 44.1792 150.731 44.599C151.521 45.0188 152.113 45.7349 152.375 46.5903L157.205 62.3674C157.466 63.2233 157.377 64.1478 156.958 64.938C156.538 65.7283 155.822 66.3198 154.966 66.5827L88.9891 86.7816C88.6696 86.8797 88.3373 86.9296 88.0031 86.9297Z" fill="#6C63FF"/>
<path d="M113.305 55.8549C117.447 55.8549 120.805 52.4971 120.805 48.3549C120.805 44.2128 117.447 40.8549 113.305 40.8549C109.163 40.8549 105.805 44.2128 105.805 48.3549C105.805 52.4971 109.163 55.8549 113.305 55.8549Z" fill="#6C63FF"/>
<path d="M113.305 53.1042C115.928 53.1042 118.054 50.9779 118.054 48.3549C118.054 45.732 115.928 43.6057 113.305 43.6057C110.682 43.6057 108.556 45.732 108.556 48.3549C108.556 50.9779 110.682 53.1042 113.305 53.1042Z" fill="white"/>
<path d="M267.986 257.312H141.236C140.391 257.311 139.581 256.975 138.984 256.377C138.386 255.78 138.05 254.97 138.049 254.125V102.25C138.05 101.405 138.386 100.594 138.984 99.9968C139.581 99.3992 140.391 99.0631 141.236 99.0621H267.986C268.832 99.0631 269.642 99.3992 270.239 99.9968C270.837 100.594 271.173 101.405 271.174 102.25V254.125C271.173 254.97 270.837 255.78 270.239 256.377C269.642 256.975 268.832 257.311 267.986 257.312Z" fill="#E6E6E6"/>
<path d="M209.674 91.5621H130.736C129.046 91.5645 127.426 92.2369 126.231 93.432C125.036 94.627 124.364 96.2471 124.361 97.9371V250.862L125.111 250.633V97.9371C125.113 96.4458 125.706 95.0162 126.761 93.9617C127.815 92.9072 129.245 92.3139 130.736 92.3121H209.906L209.674 91.5621ZM278.486 91.5621H130.736C129.046 91.5645 127.426 92.2369 126.231 93.432C125.036 94.627 124.364 96.2471 124.361 97.9371V269.687C124.364 271.377 125.036 272.997 126.231 274.192C127.426 275.387 129.046 276.06 130.736 276.062H278.486C280.176 276.06 281.796 275.387 282.992 274.192C284.187 272.997 284.859 271.377 284.861 269.687V97.9371C284.859 96.2471 284.187 94.627 282.992 93.432C281.796 92.2369 280.176 91.5645 278.486 91.5621ZM284.111 269.687C284.11 271.178 283.516 272.608 282.462 273.663C281.407 274.717 279.978 275.31 278.486 275.312H130.736C129.245 275.31 127.815 274.717 126.761 273.663C125.706 272.608 125.113 271.178 125.111 269.687V97.9371C125.113 96.4458 125.706 95.0162 126.761 93.9617C127.815 92.9072 129.245 92.3139 130.736 92.3121H278.486C279.978 92.3139 281.407 92.9072 282.462 93.9617C283.516 95.0162 284.11 96.4458 284.111 97.9371V269.687Z" fill="#3F3D56"/>
<path d="M239.111 108.062H170.111C169.217 108.061 168.359 107.705 167.726 107.073C167.093 106.44 166.737 105.582 166.736 104.687V88.1871C166.737 87.2923 167.093 86.4345 167.726 85.8018C168.359 85.169 169.217 84.8131 170.111 84.8121H239.111C240.006 84.8131 240.864 85.169 241.497 85.8018C242.13 86.4345 242.485 87.2923 242.486 88.1871V104.687C242.485 105.582 242.13 106.44 241.497 107.073C240.864 107.705 240.006 108.061 239.111 108.062Z" fill="#6C63FF"/>
<path d="M204.611 85.9371C208.753 85.9371 212.111 82.5793 212.111 78.4371C212.111 74.295 208.753 70.9371 204.611 70.9371C200.469 70.9371 197.111 74.295 197.111 78.4371C197.111 82.5793 200.469 85.9371 204.611 85.9371Z" fill="#6C63FF"/>
<path d="M204.611 83.0054C207.134 83.0054 209.179 80.9601 209.179 78.4372C209.179 75.9142 207.134 73.869 204.611 73.869C202.088 73.869 200.043 75.9142 200.043 78.4372C200.043 80.9601 202.088 83.0054 204.611 83.0054Z" fill="white"/>
</svg>
